<?xml version="1.0" encoding="UTF-8" standalone="no"?>
<!-- Created with Inkscape (http://www.inkscape.org/) -->

<svg
   xmlns:dc="http://purl.org/dc/elements/1.1/"
   xmlns:cc="http://creativecommons.org/ns#"
   xmlns:rdf="http://www.w3.org/1999/02/22-rdf-syntax-ns#"
   xmlns:svg="http://www.w3.org/2000/svg"
   xmlns="http://www.w3.org/2000/svg"
   xmlns:sodipodi="http://sodipodi.sourceforge.net/DTD/sodipodi-0.dtd"
   xmlns:inkscape="http://www.inkscape.org/namespaces/inkscape"
   width="500"
   height="500"
   viewBox="0 0 132.29166 132.29167"
   version="1.1"
   id="svg8"
   inkscape:version="0.92.4 5da689c313, 2019-01-14"
   sodipodi:docname="safe.svg">
  <defs
     id="defs2" />
  <sodipodi:namedview
     id="base"
     pagecolor="#ffffff"
     bordercolor="#666666"
     borderopacity="1.0"
     inkscape:pageopacity="0.0"
     inkscape:pageshadow="2"
     inkscape:zoom="0.70710678"
     inkscape:cx="423.91883"
     inkscape:cy="394.55375"
     inkscape:document-units="px"
     inkscape:current-layer="layer1"
     showgrid="false"
     units="px"
     inkscape:window-width="1920"
     inkscape:window-height="1040"
     inkscape:window-x="1920"
     inkscape:window-y="0"
     inkscape:window-maximized="1"
     inkscape:snap-bbox="true"
     inkscape:bbox-paths="true"
     inkscape:bbox-nodes="true"
     inkscape:snap-bbox-edge-midpoints="true"
     inkscape:snap-bbox-midpoints="true"
     inkscape:object-paths="true"
     inkscape:snap-intersection-paths="true"
     inkscape:snap-smooth-nodes="true"
     inkscape:snap-midpoints="false"
     inkscape:snap-object-midpoints="false"
     inkscape:snap-center="false"
     inkscape:snap-text-baseline="false"
     inkscape:snap-others="true"
     inkscape:object-nodes="true"
     inkscape:snap-nodes="true"
     inkscape:snap-global="true" />
  <metadata
     id="metadata5">
    <rdf:RDF>
      <cc:Work
         rdf:about="">
        <dc:format>image/svg+xml</dc:format>
        <dc:type
           rdf:resource="http://purl.org/dc/dcmitype/StillImage" />
        <dc:title />
      </cc:Work>
    </rdf:RDF>
  </metadata>
  <g
     inkscape:label="Layer 1"
     inkscape:groupmode="layer"
     id="layer1"
     transform="translate(0,-164.70831)">
    <g
       id="g1531" />
    <path
       id="path825"
       style="fill:#000000;fill-opacity:1;stroke:none;stroke-width:1.02135253;stroke-linejoin:miter;stroke-miterlimit:4;stroke-dasharray:none;stroke-opacity:1"
       d="M 66.31686,186.52136 A 25.165435,25.165435 0 0 0 41.15164,211.6866 h 9.37314 a 15.791735,15.791735 0 0 1 15.79208,-15.79209 15.791735,15.791735 0 0 1 15.791237,15.79209 h 9.374032 A 25.165435,25.165435 0 0 0 66.31686,186.52136 Z m -25.179937,31.50032 c -4.208887,0 -7.597717,3.38883 -7.597717,7.59771 v 41.78444 c 0,4.2089 3.38883,7.59773 7.597717,7.59773 h 50.36037 c 4.208862,0 7.596845,-3.38883 7.596845,-7.59773 v -41.78444 c 0,-4.20888 -3.387983,-7.59771 -7.596845,-7.59771 z m 25.179739,15.09643 a 8.9765097,8.9765097 0 0 1 8.977109,8.97623 8.9765097,8.9765097 0 0 1 -2.477941,6.17651 l 2.620481,11.6343 H 66.316662 57.19788 l 2.61877,-11.62576 a 8.9765097,8.9765097 0 0 1 -2.476229,-6.18505 8.9765097,8.9765097 0 0 1 8.976241,-8.97623 z"
       inkscape:connector-curvature="0" />
  </g>
</svg>
