<?xml version="1.0" encoding="UTF-8" standalone="no"?>
<!-- Created with Inkscape (http://www.inkscape.org/) -->

<svg
   width="420"
   height="128"
   viewBox="0 0 111.125 33.866667"
   version="1.1"
   id="svg8"
   sodipodi:docname="moonpy.svg"
   inkscape:version="1.1 (ce6663b3b7, 2021-05-25)"
   inkscape:export-filename="/home/bwgraham/Desktop/Work/moonpy/logo.svg.png"
   inkscape:export-xdpi="384"
   inkscape:export-ydpi="384"
   xmlns:inkscape="http://www.inkscape.org/namespaces/inkscape"
   xmlns:sodipodi="http://sodipodi.sourceforge.net/DTD/sodipodi-0.dtd"
   xmlns="http://www.w3.org/2000/svg"
   xmlns:svg="http://www.w3.org/2000/svg"
   xmlns:rdf="http://www.w3.org/1999/02/22-rdf-syntax-ns#"
   xmlns:cc="http://creativecommons.org/ns#"
   xmlns:dc="http://purl.org/dc/elements/1.1/">
  <defs
     id="defs2">
    <inkscape:path-effect
       effect="bspline"
       id="path-effect1588"
       is_visible="true"
       weight="33.333333"
       steps="2"
       helper_size="0"
       apply_no_weight="true"
       apply_with_weight="true"
       only_selected="false" />
  </defs>
  <sodipodi:namedview
     id="base"
     pagecolor="#ffffff"
     bordercolor="#666666"
     borderopacity="1.0"
     inkscape:pageopacity="0.0"
     inkscape:pageshadow="2"
     inkscape:zoom="1"
     inkscape:cx="-101"
     inkscape:cy="165.5"
     inkscape:document-units="px"
     inkscape:current-layer="layer1"
     showgrid="false"
     inkscape:window-width="1920"
     inkscape:window-height="1016"
     inkscape:window-x="0"
     inkscape:window-y="27"
     inkscape:window-maximized="1"
     units="px"
     inkscape:snap-bbox="true"
     inkscape:bbox-paths="true"
     inkscape:bbox-nodes="true"
     inkscape:snap-bbox-edge-midpoints="true"
     inkscape:snap-bbox-midpoints="true"
     inkscape:object-paths="true"
     inkscape:snap-intersection-paths="true"
     inkscape:snap-smooth-nodes="true"
     inkscape:snap-midpoints="true"
     inkscape:snap-object-midpoints="true"
     inkscape:snap-center="true"
     inkscape:snap-text-baseline="true"
     inkscape:pagecheckerboard="0" />
  <metadata
     id="metadata5">
    <rdf:RDF>
      <cc:Work
         rdf:about="">
        <dc:format>image/svg+xml</dc:format>
        <dc:type
           rdf:resource="http://purl.org/dc/dcmitype/StillImage" />
        <dc:title />
      </cc:Work>
    </rdf:RDF>
  </metadata>
  <g
     inkscape:label="Layer 1"
     inkscape:groupmode="layer"
     id="layer1"
     transform="translate(0,-263.13331)">
    <path
       style="color:#000000;font-style:normal;font-variant:normal;font-weight:normal;font-stretch:normal;font-size:medium;line-height:normal;font-family:sans-serif;font-variant-ligatures:normal;font-variant-position:normal;font-variant-caps:normal;font-variant-numeric:normal;font-variant-alternates:normal;font-feature-settings:normal;text-indent:0;text-align:start;text-decoration:none;text-decoration-line:none;text-decoration-style:solid;text-decoration-color:#000000;letter-spacing:normal;word-spacing:normal;text-transform:none;writing-mode:lr-tb;direction:ltr;text-orientation:mixed;dominant-baseline:auto;baseline-shift:baseline;text-anchor:start;white-space:normal;shape-padding:0;clip-rule:nonzero;display:inline;overflow:visible;visibility:visible;opacity:1;isolation:auto;mix-blend-mode:normal;color-interpolation:sRGB;color-interpolation-filters:linearRGB;solid-color:#000000;solid-opacity:1;vector-effect:none;fill:#4c566a;fill-opacity:1;fill-rule:nonzero;stroke:none;stroke-width:2.64583325;stroke-linecap:round;stroke-linejoin:round;stroke-miterlimit:4;stroke-dasharray:none;stroke-dashoffset:0;stroke-opacity:1;color-rendering:auto;image-rendering:auto;shape-rendering:auto;text-rendering:auto;enable-background:accumulate"
       d="m 7.6633907,270.88193 a 1.3230489,1.3230489 0 0 0 -0.19336,0.0195 1.3230489,1.3230489 0 0 0 -0.008,0 1.3230489,1.3230489 0 0 0 -0.0156,0.004 1.3230489,1.3230489 0 0 0 -0.0781,0.0156 1.3230489,1.3230489 0 0 0 -0.0625,0.0176 1.3230489,1.3230489 0 0 0 -0.0684,0.0215 1.3230489,1.3230489 0 0 0 -0.0644,0.0254 1.3230489,1.3230489 0 0 0 -0.041,0.0156 1.3230489,1.3230489 0 0 0 -0.10157,0.0527 1.3230489,1.3230489 0 0 0 -0.11132,0.0703 1.3230489,1.3230489 0 0 0 -0.5586,1.25391 c 2.6e-4,5.59273 2.6e-4,11.18608 0,16.7793 a 1.3230489,1.3230489 0 1 0 2.64453,0 c 2.1e-4,-4.32242 1.1e-4,-8.64467 0,-12.9668 1.3231503,1.7641 2.6458103,3.52866 3.9687503,5.29297 a 1.3230489,1.3230489 0 0 0 2.11719,0 l 3.96875,-5.29297 c 1.1e-4,4.32207 2e-4,8.64444 0,12.9668 a 1.323245,1.323245 0 1 0 2.64649,0 c 2.6e-4,-5.59916 2.5e-4,-11.1982 0,-16.79688 a 1.3230489,1.3230489 0 0 0 -0.59375,-1.25976 1.3230489,1.3230489 0 0 0 -0.11329,-0.0664 1.3230489,1.3230489 0 0 0 -0.0957,-0.0469 1.3230489,1.3230489 0 0 0 -0.0566,-0.0215 1.3230489,1.3230489 0 0 0 -0.0508,-0.0176 1.3230489,1.3230489 0 0 0 -0.082,-0.0234 1.3230489,1.3230489 0 0 0 -0.0195,-0.006 1.3230489,1.3230489 0 0 0 -0.0156,-0.002 1.3230489,1.3230489 0 0 0 -0.11523,-0.0215 1.3230489,1.3230489 0 0 0 -1.32813,0.65234 l -5.20312,6.93555 c -1.73656,-2.31575 -3.47207,-4.63187 -5.2089803,-6.94727 a 1.3230489,1.3230489 0 0 0 -1.16016,-0.65429 z"
       id="path866"
       inkscape:connector-curvature="0" />
    <path
       style="color:#000000;font-style:normal;font-variant:normal;font-weight:normal;font-stretch:normal;font-size:medium;line-height:normal;font-family:sans-serif;font-variant-ligatures:normal;font-variant-position:normal;font-variant-caps:normal;font-variant-numeric:normal;font-variant-alternates:normal;font-feature-settings:normal;text-indent:0;text-align:start;text-decoration:none;text-decoration-line:none;text-decoration-style:solid;text-decoration-color:#000000;letter-spacing:normal;word-spacing:normal;text-transform:none;writing-mode:lr-tb;direction:ltr;text-orientation:mixed;dominant-baseline:auto;baseline-shift:baseline;text-anchor:start;white-space:normal;shape-padding:0;clip-rule:nonzero;display:inline;overflow:visible;visibility:visible;opacity:1;isolation:auto;mix-blend-mode:normal;color-interpolation:sRGB;color-interpolation-filters:linearRGB;solid-color:#000000;solid-opacity:1;vector-effect:none;fill:#4c566a;fill-opacity:1;fill-rule:nonzero;stroke:none;stroke-width:2.64583325;stroke-linecap:round;stroke-linejoin:round;stroke-miterlimit:4;stroke-dasharray:none;stroke-dashoffset:0;stroke-opacity:1;color-rendering:auto;image-rendering:auto;shape-rendering:auto;text-rendering:auto;enable-background:accumulate"
       d="m 30.954403,275.26279 c -4.221965,0 -7.671874,3.44991 -7.671874,7.67187 0,4.22197 3.449909,7.67383 7.671874,7.67383 4.221966,0 7.673829,-3.45186 7.673829,-7.67383 0,-4.22196 -3.451863,-7.67187 -7.673829,-7.67187 z m 0,2.64453 c 2.792051,0 5.027344,2.23529 5.027344,5.02734 0,2.79205 -2.235293,5.02734 -5.027344,5.02734 -2.79205,0 -5.027343,-2.23529 -5.027343,-5.02734 0,-2.79205 2.235293,-5.02734 5.027343,-5.02734 z"
       id="path869"
       inkscape:connector-curvature="0" />
    <path
       style="color:#000000;font-style:normal;font-variant:normal;font-weight:normal;font-stretch:normal;font-size:medium;line-height:normal;font-family:sans-serif;font-variant-ligatures:normal;font-variant-position:normal;font-variant-caps:normal;font-variant-numeric:normal;font-variant-alternates:normal;font-feature-settings:normal;text-indent:0;text-align:start;text-decoration:none;text-decoration-line:none;text-decoration-style:solid;text-decoration-color:#000000;letter-spacing:normal;word-spacing:normal;text-transform:none;writing-mode:lr-tb;direction:ltr;text-orientation:mixed;dominant-baseline:auto;baseline-shift:baseline;text-anchor:start;white-space:normal;shape-padding:0;clip-rule:nonzero;display:inline;overflow:visible;visibility:visible;opacity:1;isolation:auto;mix-blend-mode:normal;color-interpolation:sRGB;color-interpolation-filters:linearRGB;solid-color:#000000;solid-opacity:1;vector-effect:none;fill:#4c566a;fill-opacity:1;fill-rule:nonzero;stroke:none;stroke-width:2.64576721;stroke-linecap:round;stroke-linejoin:round;stroke-miterlimit:4;stroke-dasharray:none;stroke-dashoffset:0;stroke-opacity:1;color-rendering:auto;image-rendering:auto;shape-rendering:auto;text-rendering:auto;enable-background:accumulate"
       d="m 81.755185,275.26279 c -4.031055,0 -7.271732,3.17355 -7.564453,7.13281 a 1.3230159,1.3230159 0 0 0 -0.109375,0.53906 c 3.5e-4,4.23304 3.5e-4,8.46581 0,12.69922 a 1.3232424,1.3232424 0 1 0 2.646484,0.002 c 1.93e-4,-2.33844 2e-5,-4.67729 0,-7.01562 1.354676,1.19843 3.086298,1.98828 5.027344,1.98828 4.221949,0 7.67188,-3.45188 7.67188,-7.67383 0,-4.22195 -3.449931,-7.67188 -7.67188,-7.67187 z m 0,2.64453 c 2.79207,0 5.027344,2.23527 5.027344,5.02734 0,2.79207 -2.235274,5.02735 -5.027344,5.02734 -2.792068,0 -5.027344,-2.23527 -5.027344,-5.02734 0,-2.79207 2.235276,-5.02734 5.027344,-5.02734 z"
       id="path1532"
       inkscape:connector-curvature="0" />
    <path
       style="color:#000000;font-style:normal;font-variant:normal;font-weight:normal;font-stretch:normal;font-size:medium;line-height:normal;font-family:sans-serif;font-variant-ligatures:normal;font-variant-position:normal;font-variant-caps:normal;font-variant-numeric:normal;font-variant-alternates:normal;font-feature-settings:normal;text-indent:0;text-align:start;text-decoration:none;text-decoration-line:none;text-decoration-style:solid;text-decoration-color:#000000;letter-spacing:normal;word-spacing:normal;text-transform:none;writing-mode:lr-tb;direction:ltr;text-orientation:mixed;dominant-baseline:auto;baseline-shift:baseline;text-anchor:start;white-space:normal;shape-padding:0;clip-rule:nonzero;display:inline;overflow:visible;visibility:visible;opacity:1;isolation:auto;mix-blend-mode:normal;color-interpolation:sRGB;color-interpolation-filters:linearRGB;solid-color:#000000;solid-opacity:1;vector-effect:none;fill:#4c566a;fill-opacity:1;fill-rule:nonzero;stroke:none;stroke-width:2.64583325;stroke-linecap:round;stroke-linejoin:miter;stroke-miterlimit:4;stroke-dasharray:none;stroke-dashoffset:0;stroke-opacity:1;color-rendering:auto;image-rendering:auto;shape-rendering:auto;text-rendering:auto;enable-background:accumulate"
       d="m 91.307325,275.25362 a 1.3230489,1.3230489 0 0 0 -1.20225,1.93355 c 2.01098,4.02123 4.02119,8.04174 6.03172,12.06345 -0.96718,1.93431 -1.93452,3.86915 -2.90178,5.80356 a 1.3230489,1.3230489 0 1 0 2.36647,1.18177 c 1.00445,-2.00877 2.00858,-4.0172 3.01294,-6.02588 a 1.3230489,1.3230489 0 0 0 0.33346,-0.66402 c 2.055115,-4.11016 4.111505,-8.2198 6.166295,-12.32963 a 1.3232276,1.3232276 0 1 0 -2.36647,-1.18471 c -1.70984,3.41988 -3.420725,6.84145 -5.130775,10.26155 -1.71487,-3.43014 -3.43018,-6.86099 -5.1454,-10.2908 a 1.3230489,1.3230489 0 0 0 -1.16421,-0.74884 z"
       id="path1586"
       inkscape:connector-curvature="0" />
    <path
       style="color:#000000;font-style:normal;font-variant:normal;font-weight:normal;font-stretch:normal;font-size:medium;line-height:normal;font-family:sans-serif;font-variant-ligatures:normal;font-variant-position:normal;font-variant-caps:normal;font-variant-numeric:normal;font-variant-alternates:normal;font-feature-settings:normal;text-indent:0;text-align:start;text-decoration:none;text-decoration-line:none;text-decoration-style:solid;text-decoration-color:#000000;letter-spacing:normal;word-spacing:normal;text-transform:none;writing-mode:lr-tb;direction:ltr;text-orientation:mixed;dominant-baseline:auto;baseline-shift:baseline;text-anchor:start;white-space:normal;shape-padding:0;clip-rule:nonzero;display:inline;overflow:visible;visibility:visible;opacity:1;isolation:auto;mix-blend-mode:normal;color-interpolation:sRGB;color-interpolation-filters:linearRGB;solid-color:#000000;solid-opacity:1;vector-effect:none;fill:#4c566a;fill-opacity:1;fill-rule:nonzero;stroke:none;stroke-width:2.64583325;stroke-linecap:round;stroke-linejoin:round;stroke-miterlimit:4;stroke-dasharray:none;stroke-dashoffset:0;stroke-opacity:1;color-rendering:auto;image-rendering:auto;shape-rendering:auto;text-rendering:auto;enable-background:accumulate"
       d="m 42.454375,277.50832 c -2.985382,2.98538 -2.985378,7.86723 -10e-7,10.85261 2.985383,2.98538 7.865762,2.98392 10.851143,-10e-4 2.980721,-2.98073 2.984942,-7.84882 0.01352,-10.83543 a 4.233333,4.233333 0 0 0 -0.01352,-0.015 4.233333,4.233333 0 0 0 -0.04056,-0.0376 c -2.988795,-2.94579 -7.838442,-2.93524 -10.810581,0.0369 z m 1.871252,1.87126 c 0.735746,-0.73575 1.636847,-1.19643 2.57941,-1.3838 a 4.233333,4.233333 0 0 0 0.413642,5.50011 4.233333,4.233333 0 0 0 5.501941,0.41036 c -0.186847,0.94404 -0.648084,1.84662 -1.384893,2.58343 -1.97428,1.97427 -5.135458,1.97391 -7.109735,-3.7e-4 -1.974277,-1.97428 -1.974645,-5.13546 -3.65e-4,-7.10973 z"
       id="path869-3"
       inkscape:connector-curvature="0" />
    <path
       style="color:#000000;font-style:normal;font-variant:normal;font-weight:normal;font-stretch:normal;font-size:medium;line-height:normal;font-family:sans-serif;font-variant-ligatures:normal;font-variant-position:normal;font-variant-caps:normal;font-variant-numeric:normal;font-variant-alternates:normal;font-feature-settings:normal;text-indent:0;text-align:start;text-decoration:none;text-decoration-line:none;text-decoration-style:solid;text-decoration-color:#000000;letter-spacing:normal;word-spacing:normal;text-transform:none;writing-mode:lr-tb;direction:ltr;text-orientation:mixed;dominant-baseline:auto;baseline-shift:baseline;text-anchor:start;white-space:normal;shape-padding:0;clip-rule:nonzero;display:inline;overflow:visible;visibility:visible;opacity:1;isolation:auto;mix-blend-mode:normal;color-interpolation:sRGB;color-interpolation-filters:linearRGB;solid-color:#000000;solid-opacity:1;vector-effect:none;fill:#4c566a;fill-opacity:1;fill-rule:nonzero;stroke:none;stroke-width:2.64583325;stroke-linecap:round;stroke-linejoin:round;stroke-miterlimit:4;stroke-dasharray:none;stroke-dashoffset:0;stroke-opacity:1;color-rendering:auto;image-rendering:auto;shape-rendering:auto;text-rendering:auto;enable-background:accumulate"
       d="m 64.820555,275.27135 c -4.221964,0 -7.671882,3.44992 -7.671882,7.67188 v 5.3e-4 l 0.0062,6.35 c -1.6e-5,0.72672 0.588959,1.31593 1.31568,1.3162 0.726924,10e-6 1.316215,-0.58928 1.316199,-1.3162 l 0.0062,-6.35001 v -5.3e-4 c 0,-2.79205 2.235549,-5.02554 5.027599,-5.02554 2.792053,0 5.027084,2.23349 5.027084,5.02554 v 5.3e-4 h 0.0021 l 0.0062,6.34948 c -1.6e-5,0.72672 0.588962,1.31593 1.315683,1.3162 0.726924,1e-5 1.31621,-0.58928 1.3162,-1.3162 l 0.006,-6.34948 v -5.3e-4 c 0,-4.22196 -3.451471,-7.67189 -7.673437,-7.67189 z"
       id="path869-36"
       inkscape:connector-curvature="0"
       sodipodi:nodetypes="sscccccsssccccccss" />
  </g>
</svg>
