<?xml version="1.0" encoding="UTF-8" standalone="no"?>
<!-- Created with Inkscape (http://www.inkscape.org/) -->

<svg
   xmlns:dc="http://purl.org/dc/elements/1.1/"
   xmlns:cc="http://creativecommons.org/ns#"
   xmlns:rdf="http://www.w3.org/1999/02/22-rdf-syntax-ns#"
   xmlns:svg="http://www.w3.org/2000/svg"
   xmlns="http://www.w3.org/2000/svg"
   xmlns:sodipodi="http://sodipodi.sourceforge.net/DTD/sodipodi-0.dtd"
   xmlns:inkscape="http://www.inkscape.org/namespaces/inkscape"
   width="500"
   height="500"
   viewBox="0 0 132.29166 132.29167"
   version="1.1"
   id="svg8"
   inkscape:version="0.92.4 5da689c313, 2019-01-14"
   sodipodi:docname="fast.svg">
  <defs
     id="defs2" />
  <sodipodi:namedview
     id="base"
     pagecolor="#ffffff"
     bordercolor="#666666"
     borderopacity="1.0"
     inkscape:pageopacity="0.0"
     inkscape:pageshadow="2"
     inkscape:zoom="0.98994949"
     inkscape:cx="212.42771"
     inkscape:cy="297.48073"
     inkscape:document-units="px"
     inkscape:current-layer="layer1"
     showgrid="false"
     units="px"
     inkscape:window-width="1920"
     inkscape:window-height="1040"
     inkscape:window-x="1920"
     inkscape:window-y="0"
     inkscape:window-maximized="1"
     inkscape:snap-bbox="true"
     inkscape:bbox-paths="true"
     inkscape:bbox-nodes="true"
     inkscape:snap-bbox-edge-midpoints="true"
     inkscape:snap-bbox-midpoints="true"
     inkscape:object-paths="true"
     inkscape:snap-intersection-paths="true"
     inkscape:snap-smooth-nodes="true"
     inkscape:snap-midpoints="true"
     inkscape:snap-object-midpoints="true"
     inkscape:snap-center="true"
     inkscape:snap-text-baseline="true" />
  <metadata
     id="metadata5">
    <rdf:RDF>
      <cc:Work
         rdf:about="">
        <dc:format>image/svg+xml</dc:format>
        <dc:type
           rdf:resource="http://purl.org/dc/dcmitype/StillImage" />
        <dc:title></dc:title>
      </cc:Work>
    </rdf:RDF>
  </metadata>
  <g
     inkscape:label="Layer 1"
     inkscape:groupmode="layer"
     id="layer1"
     transform="translate(0,-164.70831)">
    <path
       style="fill:#0e0d13;fill-opacity:1;stroke:none;stroke-width:0;stroke-linejoin:miter;stroke-miterlimit:4;stroke-dasharray:none;stroke-opacity:1"
       d="M 64.388785,190.06513 A 64.068949,64.068949 0 0 0 2.0346133,239.76274 h 2.0269979 a 57.528285,57.528285 0 0 1 55.6290248,-43.1569 57.528285,57.528285 0 0 1 49.128704,27.77689 4.1526169,93.967796 63.624994 0 0 -33.77805,15.45434 14.356108,14.356108 0 0 0 -10.652505,-4.75687 14.356108,14.356108 0 0 0 -14.355967,14.35597 14.356108,14.356108 0 0 0 14.355967,14.35595 14.356108,14.356108 0 0 0 14.356888,-14.35595 14.356108,14.356108 0 0 0 -0.262438,-2.67758 4.1526169,93.967796 63.624994 0 0 32.921925,-17.63 57.528285,57.528285 0 0 1 3.94571,10.63415 h 11.41045 a 64.068949,64.068949 0 0 0 -6.09383,-15.98379 4.1526169,93.967796 63.624994 0 0 9.83767,-7.12614 4.1526169,93.967796 63.624994 0 0 -11.87751,3.61077 64.068949,64.068949 0 0 0 -54.238865,-30.19845 z"
       id="path836"
       inkscape:connector-curvature="0" />
  </g>
</svg>
