<?xml version="1.0" encoding="UTF-8" standalone="no"?>
<!-- Created with Inkscape (http://www.inkscape.org/) -->

<svg
   width="1024"
   height="768"
   viewBox="0 0 270.93333 203.20001"
   version="1.1"
   id="svg5"
   sodipodi:docname="banner.svg"
   inkscape:version="1.1 (ce6663b3b7, 2021-05-25)"
   xmlns:inkscape="http://www.inkscape.org/namespaces/inkscape"
   xmlns:sodipodi="http://sodipodi.sourceforge.net/DTD/sodipodi-0.dtd"
   xmlns="http://www.w3.org/2000/svg"
   xmlns:svg="http://www.w3.org/2000/svg">
  <sodipodi:namedview
     id="namedview7"
     pagecolor="#ffffff"
     bordercolor="#666666"
     borderopacity="1.0"
     inkscape:pageshadow="2"
     inkscape:pageopacity="0.0"
     inkscape:pagecheckerboard="0"
     inkscape:document-units="mm"
     showgrid="false"
     units="px"
     width="1024px"
     inkscape:zoom="0.67391182"
     inkscape:cx="389.51684"
     inkscape:cy="468.16214"
     inkscape:window-width="1920"
     inkscape:window-height="1016"
     inkscape:window-x="0"
     inkscape:window-y="27"
     inkscape:window-maximized="1"
     inkscape:current-layer="layer1" />
  <defs
     id="defs2">
    <inkscape:path-effect
       effect="spiro"
       id="path-effect1725"
       is_visible="true"
       lpeversion="1" />
    <inkscape:path-effect
       effect="spiro"
       id="path-effect1729"
       is_visible="true"
       lpeversion="1" />
    <inkscape:path-effect
       effect="spiro"
       id="path-effect1733"
       is_visible="true"
       lpeversion="1" />
    <inkscape:path-effect
       effect="spiro"
       id="path-effect13486"
       is_visible="true"
       lpeversion="1" />
    <inkscape:path-effect
       effect="spiro"
       id="path-effect16003"
       is_visible="true"
       lpeversion="1" />
  </defs>
  <g
     inkscape:label="Layer 1"
     inkscape:groupmode="layer"
     id="layer1">
    <ellipse
       style="fill:#e5e9f0;fill-opacity:1;stroke:none;stroke-width:1.05833333;stroke-opacity:1;stroke-miterlimit:4;stroke-dasharray:none"
       id="path17298"
       cx="138.11295"
       cy="103.13879"
       rx="67.73333"
       ry="67.666779" />
    <path
       style="fill:#d8dee9;fill-opacity:1;stroke:none;stroke-width:1.05833333;stroke-linecap:butt;stroke-linejoin:miter;stroke-opacity:1;stroke-miterlimit:4;stroke-dasharray:none"
       d="m 147.88452,41.807166 c -1.27895,-0.148451 -2.59812,-0.169757 -3.82903,0.207883 -0.61545,0.18882 -1.20334,0.477624 -1.70812,0.877162 -0.50479,0.399537 -0.92487,0.91179 -1.18693,1.499805 -0.38609,0.866322 -0.41398,1.864552 -0.20114,2.788826 0.21283,0.924273 0.65392,1.782269 1.17406,2.575384 0.85947,1.310522 1.95535,2.4785 3.27149,3.32935 1.31613,0.850851 2.85808,1.375567 4.42515,1.396394 1.56708,0.02083 3.15366,-0.479637 4.3609,-1.479009 1.20723,-0.999372 2.00615,-2.506685 2.05378,-4.073175 0.0306,-1.006736 -0.24207,-2.013861 -0.73058,-2.894663 -0.48851,-0.880803 -1.18807,-1.637062 -1.99722,-2.236845 -1.61829,-1.199566 -3.63139,-1.758854 -5.63236,-1.991112 z"
       id="path1723"
       inkscape:path-effect="#path-effect1725"
       inkscape:original-d="m 147.88452,41.807166 c -2.7869,-2.37439 -4.48253,1.72342 -6.72408,2.58485 -2.24155,0.86143 0.64879,3.57633 0.97292,5.36421 0.32412,1.78789 9.40774,-0.55077 14.11132,-0.82644 4.70359,-0.27566 -5.57326,-4.74823 -8.36016,-7.12262 z" />
    <path
       style="fill:#d8dee9;fill-opacity:1;stroke:none;stroke-width:1.05833333;stroke-linecap:butt;stroke-linejoin:miter;stroke-opacity:1;stroke-miterlimit:4;stroke-dasharray:none"
       d="m 123.11222,61.696296 c -1.0297,0.454609 -2.02307,1.084396 -3.14516,1.173092 -0.56104,0.04435 -1.14615,-0.05889 -1.61625,-0.368316 -0.23505,-0.154712 -0.4384,-0.359545 -0.58187,-0.601619 -0.14347,-0.242074 -0.22592,-0.52161 -0.22572,-0.803007 1.8e-4,-0.245368 0.0628,-0.489142 0.17053,-0.709597 0.10773,-0.220455 0.25985,-0.417927 0.43758,-0.587094 0.35546,-0.338333 0.80657,-0.560105 1.26848,-0.725794 0.46192,-0.165689 0.94062,-0.280132 1.40627,-0.43503 0.46565,-0.154897 0.92466,-0.354328 1.30285,-0.667045 0.39988,-0.330651 0.69582,-0.780939 0.86084,-1.272881 0.16501,-0.491943 0.20096,-1.023983 0.12468,-1.537225 -0.15256,-1.026486 -0.7467,-1.952408 -1.51579,-2.649144 -0.58801,-0.53269 -1.28577,-0.948882 -2.04424,-1.181774 -0.75848,-0.232892 -1.57768,-0.279281 -2.35094,-0.101542 -0.77326,0.177739 -1.49744,0.583211 -2.02969,1.171625 -0.53224,0.588413 -0.86559,1.360288 -0.89739,2.153071 -0.0252,0.627808 0.13297,1.247677 0.31114,1.850198 0.17817,0.602522 0.37876,1.204062 0.44232,1.829152 0.0709,0.69771 -0.0375,1.422332 -0.37085,2.039347 -0.33335,0.617016 -0.90166,1.117029 -1.5767,1.307153 -0.44367,0.124959 -0.91569,0.115562 -1.37162,0.04781 -0.45593,-0.06775 -0.90116,-0.192242 -1.35031,-0.295822 -0.44914,-0.103579 -0.90759,-0.186765 -1.36821,-0.169643 -0.46061,0.01712 -0.9273,0.14095 -1.29594,0.417657 -0.23697,0.177873 -0.42823,0.415925 -0.55182,0.685217 -0.12359,0.269293 -0.17936,0.569261 -0.16185,0.865042 0.035,0.591562 0.37596,1.155127 0.87975,1.467161 0.2961,0.183394 0.63585,0.280907 0.95616,0.417694 0.16016,0.06839 0.31677,0.147366 0.45743,0.250028 0.14067,0.102663 0.26541,0.229987 0.35072,0.381808 0.0928,0.165222 0.13657,0.356359 0.1337,0.545856 -0.003,0.189496 -0.0515,0.377188 -0.13303,0.548281 -0.16303,0.342185 -0.45206,0.611518 -0.77317,0.812906 -0.64221,0.402775 -1.41868,0.559029 -2.04452,0.986817 -0.55271,0.377804 -0.95671,0.95423 -1.17299,1.587831 -0.21628,0.6336 -0.25095,1.321505 -0.1518,1.983619 0.1983,1.324229 0.90799,2.513107 1.67484,3.61076 1.68302,2.409039 3.76279,4.608135 6.35667,5.98938 0.82584,0.439764 1.69858,0.794205 2.48854,1.295578 0.78996,0.501373 1.51033,1.178666 1.84004,2.05428 0.24119,0.640532 0.2577,1.349058 0.14773,2.024603 -0.10998,0.675546 -0.34134,1.324841 -0.5862,1.96398 -0.24487,0.639139 -0.50511,1.27473 -0.67665,1.937323 -0.17154,0.662593 -0.25245,1.359275 -0.13246,2.033114 0.11379,0.639069 0.40752,1.240859 0.81537,1.745852 0.40785,0.504993 0.92751,0.914791 1.49798,1.224499 1.14095,0.619416 2.46041,0.834295 3.75778,0.881829 2.10875,0.07726 4.29899,-0.29257 6.04923,-1.471323 0.87512,-0.589376 1.62466,-1.376499 2.11849,-2.308878 0.49382,-0.932379 0.72457,-2.011635 0.5967,-3.058939 -0.10875,-0.890711 -0.46921,-1.735432 -0.9318,-2.504327 -0.4626,-0.768896 -1.02725,-1.47042 -1.58225,-2.175521 -0.555,-0.705101 -1.10471,-1.420243 -1.53267,-2.20894 -0.42796,-0.788698 -0.7324,-1.659791 -0.76162,-2.55664 -0.0339,-1.04039 0.31238,-2.081908 0.92606,-2.92271 0.61369,-0.840803 1.48655,-1.48166 2.45665,-1.85912 0.23706,-0.09224 0.48657,-0.170272 0.74067,-0.15834 0.20523,0.0096 0.40617,0.07893 0.57875,0.190413 0.17258,0.111481 0.31708,0.26432 0.42652,0.438207 0.21886,0.347774 0.29434,0.771109 0.27946,1.181753 -0.0297,0.821289 -0.39697,1.593229 -0.51114,2.407087 -0.0927,0.661018 -0.0148,1.34237 0.20132,1.973919 0.21608,0.631548 0.56836,1.213519 1.009,1.714896 0.88128,1.002754 2.09818,1.668651 3.3735,2.063296 2.55063,0.78929 5.29471,0.546321 7.94114,0.899997 2.6934,0.359953 5.30709,1.34169 8.02437,1.36006 3.27746,0.02216 6.37874,-1.351313 9.41486,-2.58591 0.42048,-0.170985 0.84367,-0.340349 1.28485,-0.447135 0.44118,-0.106787 0.90396,-0.149537 1.3499,-0.06481 0.47209,0.08969 0.90945,0.319561 1.29079,0.611962 0.38133,0.292401 0.71066,0.64666 1.02404,1.010947 0.62677,0.728573 1.22315,1.526138 2.07013,1.980321 0.48244,0.258705 1.02981,0.392372 1.57723,0.396126 0.54742,0.0038 1.09411,-0.121452 1.5901,-0.353126 0.99198,-0.463348 1.76066,-1.350297 2.1573,-2.370782 0.39665,-1.020485 0.43414,-2.163516 0.18848,-3.230457 -0.24567,-1.066941 -0.76532,-2.059851 -1.43421,-2.926629 -0.64929,-0.841384 -1.45176,-1.578743 -2.39996,-2.058772 -0.9482,-0.480028 -2.04881,-0.690864 -3.09232,-0.489398 -0.95761,0.184881 -1.81575,0.69743 -2.64376,1.21278 -0.82802,0.51535 -1.66683,1.050488 -2.61234,1.28968 -0.88102,0.222879 -1.81605,0.17481 -2.69922,-0.03942 -0.88316,-0.214234 -1.71965,-0.589786 -2.52123,-1.017965 -0.84208,-0.449809 -1.65744,-0.964106 -2.35301,-1.618023 -0.69556,-0.653917 -1.26967,-1.455517 -1.56118,-2.364607 -0.30524,-0.951901 -0.29004,-1.980416 -0.14116,-2.96891 0.16093,-1.068514 0.48581,-2.136083 1.13034,-3.003376 0.32227,-0.433647 0.7227,-0.812245 1.18804,-1.086762 0.46535,-0.274517 0.99652,-0.44293 1.53653,-0.460032 0.64125,-0.02031 1.26837,0.16901 1.88294,0.353166 0.61457,0.184156 1.24479,0.366896 1.88546,0.332964 0.57752,-0.03059 1.14264,-0.236987 1.71982,-0.200514 0.28859,0.01824 0.57973,0.10151 0.80707,0.280205 0.11367,0.08935 0.20993,0.20183 0.27501,0.33094 0.0651,0.12911 0.0983,0.274973 0.0894,0.419279 -0.0111,0.179212 -0.0867,0.350705 -0.19517,0.493763 -0.1085,0.143058 -0.24883,0.259404 -0.3984,0.358736 -0.29915,0.198662 -0.63931,0.334151 -0.92094,0.556961 -0.39894,0.315617 -0.65539,0.797965 -0.7197,1.302572 -0.0643,0.504607 0.0586,1.02679 0.31881,1.463877 0.26023,0.437086 0.65343,0.789566 1.10441,1.0249 0.45098,0.235333 0.95803,0.3557 1.46633,0.375571 1.04161,0.04072 2.05982,-0.33244 2.97518,-0.831166 0.91536,-0.498725 1.75524,-1.124784 2.65514,-1.650894 2.79073,-1.631555 6.1455,-2.252102 9.34624,-1.79883 0.65498,0.09275 1.31241,0.229213 1.97193,0.177802 0.32976,-0.02571 0.65822,-0.09949 0.95605,-0.243355 0.29783,-0.143863 0.56432,-0.360156 0.74373,-0.638027 0.2047,-0.317029 0.28872,-0.704567 0.26427,-1.081144 -0.0244,-0.376577 -0.15347,-0.742188 -0.34423,-1.067793 -0.38152,-0.65121 -0.99192,-1.132059 -1.60197,-1.576443 -1.47468,-1.074223 -3.03166,-2.030358 -4.60411,-2.95559 -0.77197,-0.454229 -1.56602,-0.916315 -2.13213,-1.61042 -0.28306,-0.347052 -0.50377,-0.750364 -0.6045,-1.186735 -0.10073,-0.43637 -0.0766,-0.906792 0.1048,-1.316245 0.17322,-0.390934 0.47627,-0.706554 0.76176,-1.024879 0.28548,-0.318324 0.5665,-0.661667 0.67856,-1.074311 0.0668,-0.246143 0.0696,-0.508432 0.0158,-0.757753 -0.0538,-0.249321 -0.16344,-0.485581 -0.31257,-0.692496 -0.29827,-0.413829 -0.74888,-0.703152 -1.23322,-0.863236 -0.96869,-0.320169 -2.02151,-0.144074 -3.03073,0.0054 -4.06312,0.601844 -8.18285,0.719405 -12.26092,1.20988 -2.67263,0.321441 -5.37052,0.817591 -7.77144,2.03491 -0.87893,0.445635 -1.70814,0.983179 -2.57787,1.446517 -0.86972,0.463338 -1.79405,0.855995 -2.77167,0.979893 -0.99035,0.125511 -2.01157,-0.03363 -2.92813,-0.429168 -0.91657,-0.395534 -1.72792,-1.024092 -2.36184,-1.795252 -0.21124,-0.256967 -0.40357,-0.529878 -0.62979,-0.773757 -0.22622,-0.24388 -0.49185,-0.460967 -0.80478,-0.573793 -0.26046,-0.09391 -0.54633,-0.111561 -0.81871,-0.06191 -0.27239,0.04965 -0.53117,0.165453 -0.75678,0.325941 -0.45122,0.320978 -0.76125,0.811721 -0.9467,1.333483 -0.3709,1.043526 -0.27351,2.190864 -0.47137,3.280527 -0.20479,1.127831 -0.75436,2.217562 -1.64948,2.93359 -0.44756,0.358014 -0.97626,0.617859 -1.53773,0.732868 -0.56148,0.115009 -1.1552,0.08281 -1.6942,-0.112048 -0.45909,-0.165968 -0.87052,-0.444768 -1.23933,-0.764601 -0.3688,-0.319834 -0.69849,-0.681591 -1.03265,-1.037467 -0.33416,-0.355875 -0.6753,-0.708198 -1.06267,-1.005285 -0.38736,-0.297086 -0.82487,-0.538881 -1.30056,-0.648557 -0.4372,-0.100801 -0.89572,-0.08724 -1.33619,-0.0019 -0.44047,0.08536 -0.86462,0.240969 -1.27507,0.422179 z"
       id="path1727"
       inkscape:path-effect="#path-effect1729"
       inkscape:original-d="m 123.11222,61.696296 c -0.87061,0.13991 -3.71248,-0.39972 -5.569,-0.59985 -1.85652,-0.20014 3.05732,-2.08286 4.58571,-3.12456 1.52838,-1.04171 -0.35333,-3.63932 -0.53027,-5.45925 -0.17694,-1.81993 -4.88132,1.36111 -7.32226,2.04138 -2.44094,0.68028 0.50249,2.45308 0.75346,3.67935 0.25097,1.22626 -1.29818,2.23118 -1.94755,3.3465 -0.64937,1.11532 -3.59054,1.8e-4 -5.38608,0 -1.79555,-1.9e-4 0.11091,2.0118 0.16608,3.01742 0.0552,1.00562 1.17639,0.69987 1.76431,1.04953 0.58791,0.34966 -1.87783,1.92942 -2.81702,2.89386 -0.93919,0.96444 0.23355,4.78832 0.35005,7.18221 0.1165,2.39389 4.23796,3.9931 6.35667,5.98938 2.1187,1.996268 2.8859,2.233428 4.32858,3.349858 1.44268,1.11644 -0.83154,5.3062 -1.24758,7.95902 -0.41605,2.65282 4.0476,2.5683 6.07113,3.85218 2.02352,1.28386 5.84313,-4.55924 8.76442,-6.83914 2.9213,-2.2799 -3.20537,-6.29677 -4.80834,-9.445428 -1.60296,-3.14867 2.03201,-2.27384 3.38271,-4.78183 1.35069,-2.50799 0.71728,-1.01924 0.74067,-0.15834 0.0234,0.8609 2.42533,3.35552 0.77359,4.21746 -18.66147,9.738278 6.06033,6.807278 12.52496,6.652108 6.46463,-0.15517 7.3215,-1.0104 8.02437,1.36006 0.70287,2.37047 6.27676,-1.72375 9.41486,-2.58591 3.1381,-0.86215 1.75669,-0.34112 2.63475,-0.51195 0.87808,-0.17084 2.92349,2.40233 4.38496,3.60323 1.46147,1.20089 2.71946,-5.656398 4.0789,-8.484868 1.35946,-2.82848 -3.66133,-1.69859 -5.49228,-2.54817 -1.83094,-0.84957 -3.50389,1.66849 -5.2561,2.50246 -1.75223,0.83397 -3.48011,-0.70474 -5.22045,-1.05739 -1.74032,-0.35264 -2.60928,-2.6549 -3.91419,-3.98263 -1.30492,-1.32773 -0.0939,-1.97909 -0.14116,-2.96891 -0.0472,-0.98982 2.57012,-3.03326 3.85491,-4.55017 1.28478,-1.51691 2.51245,0.4576 3.7684,0.68613 1.25595,0.22853 1.92774,0.55346 2.89133,0.82991 0.96359,0.27646 -1.00949,0.93983 -1.51451,1.40946 -0.50502,0.46964 1.44675,2.77813 2.16985,4.16692 0.7231,1.38879 3.75373,-1.65452 5.63032,-2.48206 1.87659,-0.82754 6.23101,-1.19903 9.34624,-1.79883 3.11523,-0.59979 2.44799,-0.46887 3.67171,-0.70358 1.22372,-0.23471 -1.1211,-2.4834 -1.68193,-3.72538 -0.56083,-1.24198 -3.06922,-1.97021 -4.60411,-2.95559 -1.5349,-0.98538 -1.75437,-2.74208 -2.63183,-4.1134 -0.87745,-1.37132 0.96041,-1.39927 1.44032,-2.09919 0.47993,-0.69991 -3.0403,-1.53853 -4.56072,-2.30807 -1.52043,-0.76954 -8.17377,0.80677 -12.26092,1.20988 -4.08717,0.4031 -5.18078,1.35679 -7.77144,2.03491 -2.59066,0.67812 -3.56618,1.61779 -5.34954,2.42641 -1.78337,0.80863 -3.52646,-1.48276 -5.28997,-2.22442 -1.76351,-0.74166 -0.9562,-0.89818 -1.43457,-1.34755 -0.47838,-0.44937 -1.99552,3.25221 -2.99356,4.87804 -0.99803,1.62583 -3.25409,2.3698 -4.88141,3.55441 -1.62733,1.18463 -3.08996,-2.30376 -4.63521,-3.45591 -1.54525,-1.15216 -1.74066,0.28038 -2.61126,0.4203 z"
       sodipodi:nodetypes="ssssssssssssssssssssssssssssssssssssssssssssssssssssss" />
    <path
       style="fill:#d8dee9;fill-opacity:1;stroke:none;stroke-width:1.05833333;stroke-linecap:butt;stroke-linejoin:miter;stroke-opacity:1;stroke-miterlimit:4;stroke-dasharray:none"
       d="m 76.548582,84.205864 c 3.209964,-4.830892 6.064786,-9.897711 8.53382,-15.146068 1.775161,-3.773411 3.380266,-7.689256 5.96797,-10.959366 1.293852,-1.635055 2.832205,-3.095144 4.625803,-4.158377 1.793597,-1.063233 3.851481,-1.718667 5.936535,-1.721227 1.24603,-0.0015 2.52414,0.242213 3.56902,0.921049 0.52244,0.339419 0.97933,0.785387 1.30485,1.316598 0.32552,0.531211 0.51666,1.148706 0.51714,1.771723 4.9e-4,0.635445 -0.1956,1.26117 -0.49985,1.819039 -0.30426,0.557869 -0.714,1.052109 -1.15791,1.506789 -0.88782,0.909358 -1.92581,1.679971 -2.68862,2.696472 -0.70731,0.942537 -1.1458,2.053461 -1.6387,3.123843 -0.49289,1.070382 -1.069616,2.140812 -1.972808,2.897717 -0.945491,0.792354 -2.159643,1.169282 -3.32742,1.566869 -1.167777,0.397587 -2.368684,0.864083 -3.20157,1.774071 -0.382232,0.417617 -0.684116,0.925638 -1.16283,1.22786 -0.390791,0.246715 -0.863017,0.330523 -1.324573,0.354009 -0.461555,0.02349 -0.925294,-0.0081 -1.385737,0.03163 -1.488465,0.128412 -2.85804,1.024238 -3.707923,2.252943 -0.849884,1.228705 -1.205665,2.759176 -1.151757,4.252197 0.0243,0.673054 0.127713,1.341646 0.145044,2.014915 0.01733,0.673269 -0.05715,1.366645 -0.365754,1.965273 -0.401341,0.778522 -1.151857,1.31343 -1.914987,1.743317 -0.763131,0.429886 -1.575979,0.792412 -2.239293,1.364413 -0.840781,0.725038 -1.386277,1.747629 -1.688649,2.815882 -0.302372,1.068252 -0.376953,2.187335 -0.397461,3.297368 -0.04981,2.695861 0.197735,5.474558 -0.70004,8.017026 -0.436251,1.23545 -1.139175,2.39999 -1.27715,3.70291 -0.141671,1.33783 0.332996,2.66563 0.933072,3.86969 0.600076,1.20406 1.33563,2.34804 1.778908,3.61822 0.223547,0.64056 0.37547,1.31845 0.744934,1.88747 0.184731,0.28451 0.424747,0.53821 0.719873,0.70546 0.295125,0.16725 0.648185,0.24313 0.980423,0.17465 0.245639,-0.0506 0.472449,-0.178 0.65628,-0.34861 0.183831,-0.17061 0.325853,-0.38332 0.429995,-0.61148 0.208283,-0.45631 0.265482,-0.96513 0.310735,-1.46469 0.128894,-1.42291 0.182242,-2.85926 0.01773,-4.27848 -0.164509,-1.41923 -0.55294,-2.82559 -1.264203,-4.06469 -0.401761,-0.69992 -0.902271,-1.34045 -1.286711,-2.05002 -0.384441,-0.70958 -0.652604,-1.52003 -0.533219,-2.318176 0.08225,-0.54988 0.344381,-1.060199 0.676051,-1.506437 0.331669,-0.446238 0.732727,-0.835418 1.12967,-1.224737 0.396943,-0.389319 0.793852,-0.783481 1.115205,-1.237205 0.321353,-0.453724 0.566314,-0.974239 0.623274,-1.527311 0.07277,-0.706566 -0.162344,-1.405076 -0.23256,-2.1119 -0.08068,-0.812193 0.05854,-1.635152 0.313521,-2.410491 0.254984,-0.775338 0.623551,-1.508146 1.011528,-2.226227 0.775954,-1.436163 1.652521,-2.876114 1.869501,-4.49401 0.0969,-0.722488 0.05748,-1.456234 -0.01,-2.18206 -0.02958,-0.318212 -0.06457,-0.63767 -0.04501,-0.956655 0.01956,-0.318985 0.09704,-0.641264 0.274956,-0.906741 0.08896,-0.132739 0.202513,-0.249794 0.336606,-0.3367 0.134094,-0.08691 0.28897,-0.143102 0.448302,-0.15522 0.159332,-0.01212 0.322831,0.02074 0.461737,0.09972 0.138905,0.07899 0.251964,0.204744 0.3093,0.353895 0.06222,0.161867 0.05758,0.342792 0.02274,0.512671 -0.03484,0.16988 -0.09837,0.332261 -0.152538,0.497 -0.05416,0.164739 -0.0995,0.335356 -0.09589,0.508733 0.0018,0.08669 0.01606,0.173499 0.04663,0.254638 0.03057,0.08114 0.07776,0.156528 0.140752,0.216108 0.08196,0.07752 0.189133,0.126377 0.300445,0.144751 0.111311,0.01837 0.226524,0.0071 0.334568,-0.0254 0.216087,-0.06495 0.398846,-0.21065 0.557987,-0.370606 0.60337,-0.606462 0.928067,-1.432321 1.439989,-2.117733 0.25596,-0.342706 0.565254,-0.654599 0.94414,-0.853114 0.378886,-0.198516 0.834011,-0.274572 1.241501,-0.144513 0.344762,0.110038 0.627403,0.353349 0.926876,0.556535 0.149737,0.101593 0.306828,0.194725 0.477212,0.255648 0.170384,0.06092 0.355492,0.08859 0.533722,0.05735 0.244189,-0.04281 0.461203,-0.19535 0.611217,-0.392725 0.150015,-0.197374 0.237285,-0.436848 0.283238,-0.680465 0.0919,-0.487234 0.02541,-0.990851 0.08038,-1.48362 0.08251,-0.739562 0.444782,-1.437729 0.973106,-1.961783 0.528324,-0.524054 1.216101,-0.876756 1.941609,-1.04228 1.451015,-0.331046 2.993223,0.08321 4.280493,0.830183 1.51708,0.880331 2.73746,2.194396 3.79769,3.59169 1.06023,1.397295 1.9834,2.895023 3.05529,4.28339 0.87779,1.136959 1.87088,2.227429 2.37904,3.570922 0.25408,0.671746 0.37831,1.40234 0.27986,2.113751 -0.0984,0.711411 -0.43179,1.40146 -0.98108,1.864145 -0.43835,0.369235 -0.99079,0.579816 -1.55035,0.703836 -0.55955,0.124019 -1.13326,0.167565 -1.70159,0.241594 -1.0305,0.13423 -2.08201,0.385151 -2.91168,1.010928 -0.41483,0.312888 -0.76568,0.717959 -0.98025,1.191188 -0.21458,0.473228 -0.28759,1.016036 -0.16734,1.521534 0.0834,0.350411 0.25828,0.678527 0.5022,0.943557 0.24391,0.26503 0.55623,0.466446 0.89805,0.580025 0.34181,0.113579 0.71237,0.139152 1.06668,0.07435 0.35431,-0.0648 0.69166,-0.219781 0.97213,-0.44578 0.41993,-0.338378 0.69771,-0.816459 1.00639,-1.258677 0.15434,-0.221109 0.31929,-0.436487 0.51488,-0.622104 0.19559,-0.185616 0.42361,-0.341371 0.67889,-0.428219 0.24376,-0.08293 0.50823,-0.100909 0.76244,-0.06009 0.25422,0.04082 0.49805,0.139707 0.71368,0.280407 0.43126,0.281401 0.74202,0.724367 0.92317,1.206405 0.36229,0.964075 0.22643,2.032542 0.13556,3.058427 -0.19703,2.224468 -0.16277,4.497966 -0.81059,6.635116 -0.95267,3.14285 -3.26686,5.65359 -5.43871,8.11695 -1.06712,1.21035 -2.1271,2.4534 -2.84571,3.89815 -0.7186,1.44475 -1.07282,3.13085 -0.65626,4.68975 0.19261,0.72083 0.55065,1.40358 1.07326,1.9361 0.52262,0.53251 1.2139,0.90838 1.95354,1.00645 0.53601,0.0711 1.08574,-0.003 1.59889,-0.17341 0.51315,-0.17039 0.9914,-0.43505 1.43468,-0.74466 0.88655,-0.61923 1.63387,-1.41415 2.46238,-2.10912 2.09559,-1.75782 4.73458,-2.90014 6.44256,-5.03655 0.85399,-1.0682 1.44349,-2.39712 1.40829,-3.76428 -0.0176,-0.68357 -0.19327,-1.36651 -0.53662,-1.95786 -0.34336,-0.59135 -0.85712,-1.08778 -1.47454,-1.38168 -0.61854,-0.29443 -1.32049,-0.38202 -1.93495,-0.68487 -0.53296,-0.26268 -0.98262,-0.68267 -1.30782,-1.17995 -0.3252,-0.49729 -0.52819,-1.06992 -0.6205,-1.65688 -0.18461,-1.17394 0.0691,-2.37897 0.48624,-3.4917 0.50716,-1.352773 1.29797,-2.655912 2.50919,-3.443409 0.60562,-0.393749 1.30865,-0.647602 2.03012,-0.683453 0.72147,-0.03585 1.45977,0.153291 2.04913,0.570976 0.77191,0.54706 1.23422,1.429796 1.56459,2.316344 0.33038,0.886552 0.56039,1.816192 1.0071,2.650202 0.46107,0.86082 1.15848,1.60563 2.02479,2.05629 0.86631,0.45065 1.90355,0.59226 2.84104,0.31895 0.46875,-0.13666 0.90883,-0.37439 1.2737,-0.69885 0.36487,-0.32445 0.65346,-0.73579 0.82537,-1.19278 0.17192,-0.457 0.22589,-0.95907 0.14554,-1.44067 -0.0804,-0.48161 -0.29595,-0.9412 -0.62208,-1.30457 -0.21707,-0.24186 -0.47931,-0.43918 -0.70334,-0.674608 -0.11201,-0.117714 -0.21471,-0.245475 -0.29321,-0.387748 -0.0785,-0.142274 -0.13236,-0.299763 -0.14326,-0.46189 -0.0115,-0.171417 0.0257,-0.345118 0.1013,-0.49939 0.0756,-0.154272 0.18901,-0.289132 0.32453,-0.394727 0.27104,-0.211191 0.6245,-0.30081 0.96789,-0.288589 0.34339,0.01222 0.67791,0.120431 0.98663,0.271297 0.30872,0.150866 0.59455,0.343974 0.8791,0.536579 0.60558,0.409897 1.21253,0.82206 1.76006,1.306774 0.54754,0.484712 1.03713,1.046902 1.3635,1.701292 0.41099,0.82406 0.54732,1.77938 0.40076,2.68851 -0.14657,0.90913 -0.57284,1.76869 -1.19477,2.4478 -0.62586,0.6834 -1.42884,1.17465 -2.22115,1.65524 -0.79232,0.48059 -1.59664,0.96881 -2.22715,1.64791 -0.49668,0.53495 -0.87442,1.18236 -1.07897,1.88308 -0.20456,0.70073 -0.23396,1.45407 -0.0677,2.16485 0.16631,0.71077 0.52988,1.37669 1.05012,1.88876 0.52023,0.51207 1.19687,0.86666 1.917,0.98615 0.84711,0.14056 1.70963,-0.0397 2.56566,-0.10715 0.42802,-0.0337 0.86143,-0.0389 1.28382,0.038 0.42239,0.0769 0.83529,0.23969 1.16569,0.51387 0.28751,0.23859 0.50307,0.55232 0.6886,0.87662 0.18552,0.3243 0.34496,0.66346 0.54238,0.98066 0.19742,0.31719 0.43757,0.616 0.74979,0.82119 0.15611,0.1026 0.32928,0.18062 0.51172,0.22079 0.18244,0.0402 0.37425,0.0419 0.5554,-0.004 0.27488,-0.0693 0.51472,-0.24471 0.69974,-0.45948 0.18503,-0.21477 0.31968,-0.46804 0.43776,-0.72575 0.11808,-0.25771 0.22133,-0.52244 0.35211,-0.77394 0.13078,-0.25151 0.29145,-0.49192 0.50641,-0.67672 0.27653,-0.23772 0.63532,-0.37282 0.99917,-0.39715 0.36385,-0.0243 0.73159,0.0593 1.05895,0.21996 0.65474,0.32131 1.12939,0.93307 1.43314,1.59613 0.30375,0.66306 0.45609,1.38335 0.61945,2.09415 0.16335,0.7108 0.34345,1.42796 0.69537,2.06676 0.21686,0.39363 0.49907,0.75428 0.84849,1.0369 0.34942,0.28263 0.76766,0.48534 1.21152,0.55579 0.40472,0.0642 0.82038,0.0183 1.21914,-0.0761 0.39875,-0.0944 0.7843,-0.23655 1.17255,-0.36764 0.38826,-0.1311 0.78272,-0.25201 1.18947,-0.30182 0.40675,-0.0498 0.82923,-0.0257 1.20996,0.12586 0.29949,0.11921 0.56608,0.31493 0.78254,0.55378 0.21645,0.23885 0.38365,0.52012 0.50627,0.81823 0.24525,0.5962 0.31182,1.25031 0.32947,1.89475 0.0177,0.64443 -0.0109,1.29127 0.0557,1.93251 0.0665,0.64123 0.23534,1.28758 0.609,1.81293 0.30884,0.43422 0.74026,0.76338 1.10867,1.14836 0.1842,0.1925 0.3542,0.4012 0.4795,0.63632 0.12531,0.23512 0.20473,0.49849 0.20074,0.76489 -0.005,0.3367 -0.14406,0.66294 -0.35143,0.92825 -0.20737,0.2653 -0.4801,0.47359 -0.77074,0.64365 -0.58127,0.34012 -1.24085,0.53694 -1.80229,0.90889 -0.66068,0.4377 -1.15453,1.10538 -1.43825,1.84537 -0.28371,0.73999 -0.364,1.54923 -0.2942,2.33866 0.1396,1.57886 0.85648,3.04382 1.6178,4.43403 0.27683,0.50551 0.56227,1.00909 0.76819,1.54739 0.20592,0.53831 0.33074,1.11809 0.27236,1.69147 -0.0571,0.56041 -0.29151,1.09987 -0.65404,1.53102 -0.36252,0.43115 -0.8507,0.75341 -1.38633,0.9278 -0.53563,0.1744 -1.11692,0.20169 -1.66885,0.089 -0.55192,-0.11264 -1.07369,-0.36392 -1.5129,-0.71663 -0.79849,-0.64122 -1.29337,-1.57556 -1.92126,-2.38458 -0.31394,-0.40451 -0.66852,-0.78447 -1.09589,-1.06651 -0.42737,-0.28204 -0.93379,-0.46196 -1.44541,-0.44122 -0.39416,0.016 -0.7821,0.15217 -1.10209,0.38287 -0.32,0.23069 -0.57125,0.55464 -0.71881,0.92049 -0.14756,0.36585 -0.19143,0.77232 -0.12932,1.16188 0.0621,0.38957 0.2296,0.76131 0.47711,1.06848 0.40785,0.50615 1.00465,0.81663 1.50387,1.23293 0.24961,0.20816 0.47867,0.44784 0.63246,0.73416 0.15379,0.28633 0.22769,0.62372 0.15963,0.94153 -0.0539,0.25162 -0.19471,0.4808 -0.38174,0.65754 -0.18702,0.17674 -0.41865,0.30261 -0.66309,0.38299 -0.48888,0.16077 -1.01681,0.14185 -1.53014,0.10516 -0.51333,-0.0367 -1.03384,-0.089 -1.53896,0.01 -0.25255,0.0493 -0.49944,0.13696 -0.71613,0.27574 -0.21669,0.13878 -0.40241,0.33026 -0.51686,0.56072 -0.13021,0.26219 -0.16364,0.56116 -0.17659,0.85362 -0.013,0.29246 -0.008,0.58798 -0.0685,0.87435 -0.0807,0.38 -0.27783,0.73212 -0.5478,1.01145 -0.26996,0.27933 -0.61098,0.48668 -0.97796,0.61409 -0.73396,0.25482 -1.55202,0.18683 -2.28712,-0.0647 -1.47021,-0.50299 -2.60015,-1.66965 -3.91151,-2.50322 -0.55287,-0.35144 -1.1464,-0.64882 -1.63534,-1.08485 -0.24447,-0.21801 -0.46125,-0.47076 -0.61391,-0.76057 -0.15266,-0.2898 -0.2393,-0.61825 -0.22053,-0.94527 0.0274,-0.47768 0.27138,-0.91205 0.50503,-1.32959 0.23366,-0.41753 0.46896,-0.85922 0.47632,-1.33763 0.005,-0.35392 -0.11891,-0.70466 -0.32659,-0.9913 -0.20767,-0.28664 -0.49565,-0.51061 -0.8144,-0.66451 -0.63752,-0.30781 -1.37509,-0.33491 -2.07996,-0.26916 -1.52964,0.14268 -2.99112,0.68973 -4.40252,1.29646 -0.69213,0.29753 -1.39656,0.62399 -1.91204,1.17339 -0.25774,0.2747 -0.46292,0.60365 -0.56461,0.96634 -0.10169,0.3627 -0.0956,0.76 0.0476,1.10841 0.16141,0.39278 0.48549,0.7018 0.85111,0.91778 0.36563,0.21598 0.77382,0.34797 1.18033,0.47078 0.38737,0.11703 0.77796,0.22772 1.14957,0.38787 0.37162,0.16016 0.72656,0.37282 1.00343,0.66793 0.27687,0.29512 0.47126,0.67886 0.48999,1.08308 0.009,0.20211 -0.0254,0.40696 -0.10766,0.59182 -0.0823,0.18486 -0.2125,0.34913 -0.37798,0.46554 -0.27369,0.19253 -0.62886,0.2442 -0.96013,0.19691 -0.33127,-0.0473 -0.64283,-0.18573 -0.93643,-0.34626 -0.29361,-0.16054 -0.57432,-0.3446 -0.87377,-0.49393 -0.29946,-0.14934 -0.623,-0.26443 -0.95749,-0.27397 -0.35072,-0.01 -0.69763,0.0974 -1.00687,0.26309 -0.30925,0.16575 -0.58426,0.38836 -0.84622,0.62178 -0.5239,0.46683 -1.02671,0.99699 -1.68699,1.23456 -0.67824,0.24403 -1.44616,0.13985 -2.10381,-0.15522 -0.65764,-0.29507 -1.21988,-0.7667 -1.73856,-1.26723 -0.86024,-0.83015 -1.65968,-1.78002 -2.7514,-2.26717 -0.54585,-0.24358 -1.16052,-0.35923 -1.74824,-0.25027 -0.29387,0.0545 -0.5783,0.16489 -0.82629,0.33168 -0.248,0.1668 -0.45888,0.39054 -0.60175,0.65305 -0.16525,0.30363 -0.23683,0.65471 -0.22206,1.00008 0.0148,0.34537 0.1141,0.68482 0.27139,0.99265 0.31457,0.61565 0.84955,1.09358 1.43027,1.46875 0.43056,0.27816 0.90001,0.5144 1.24525,0.89329 0.17263,0.18945 0.31113,0.41445 0.37413,0.66288 0.063,0.24844 0.0461,0.52134 -0.073,0.74828 -0.13951,0.26584 -0.41116,0.44975 -0.70402,0.51583 -0.29285,0.0661 -0.6037,0.0219 -0.88267,-0.089 -0.55796,-0.22184 -0.97623,-0.68581 -1.40158,-1.10961 -0.9778,-0.97422 -2.10411,-1.81084 -3.36222,-2.37861 -1.64003,-0.74013 -3.44987,-1.0045 -5.163238,-1.55393 -3.098202,-0.9935 -5.839515,-2.91322 -8.154945,-5.19897 -2.31543,-2.28576 -4.234694,-4.9376 -6.064535,-7.62788 -5.389793,-7.9242 -10.167861,-16.46131 -12.25789,-25.81409 -1.187095,-5.3122 -1.482743,-10.82043 -0.89564,-16.2319 0.649608,-5.98759 2.38129,-11.85614 5.08633,-17.237216 z"
       id="path1731"
       inkscape:path-effect="#path-effect1733"
       inkscape:original-d="m 76.548582,84.205864 c 1.69526,-5.745918 5.6894,-10.097188 8.53382,-15.146068 2.84443,-5.04887 11.02039,-11.2258 16.530308,-16.83897 5.50991,-5.61318 3.59419,2.6731 5.39101,4.00937 1.79682,1.33628 -2.8974,4.01505 -4.34638,6.0223 -1.44897,2.00725 -2.40749,4.01455 -3.611508,6.02156 -1.20403,2.007 -4.35248,2.22747 -6.52899,3.34094 -2.17651,1.11346 -0.77503,0.81876 -1.16283,1.22786 -0.38779,0.4091 -1.80669,0.25728 -2.71031,0.38564 -0.90363,0.12836 -3.2396,4.33694 -4.85968,6.50514 -1.62007,2.16819 -0.14696,2.65364 -0.22071,3.980188 -0.0738,1.32654 -2.76934,2.072 -4.15428,3.10773 -1.38494,1.03572 -1.39056,4.07568 -2.08611,6.11325 -0.69556,2.03757 -0.46651,5.34487 -0.70004,8.017026 -0.23354,2.67216 -0.85125,2.4688 -1.27715,3.70291 -0.4259,1.23413 1.80817,4.99213 2.71198,7.48791 0.9038,2.4958 1.63034,1.84524 2.44523,2.76758 0.81489,0.92234 0.93153,-1.61634 1.39701,-2.42478 0.46549,-0.80846 -0.8308,-5.56193 -1.24647,-8.34317 -0.41568,-2.78124 -1.21311,-2.91195 -1.81993,-4.368196 -0.60683,-1.45625 2.36298,-3.66361 3.5442,-5.49569 1.18121,-1.83208 -0.15485,-1.40775 -0.23256,-2.1119 -0.0777,-0.70415 2.12988,-6.08697 3.19455,-9.130728 1.06466,-3.04376 -0.006,-1.45452 -0.01,-2.18206 -0.003,-0.72754 1.19077,-1.26762 1.78589,-1.9017 0.59511,-0.63408 -0.0254,1.32628 -0.0383,1.98915 -0.013,0.66286 0.79551,-0.16731 1.193,-0.25125 0.39748,-0.0839 2.41727,-2.07672 3.62563,-3.11536 1.20836,-1.03864 1.29206,0.57987 1.93781,0.86953 0.64576,0.28965 0.65008,-1.70436 0.97484,-2.55681 0.32477,-0.85246 4.79699,-1.44907 7.195208,-2.17388 2.39822,-0.72481 4.56884,5.25023 6.85298,7.87508 2.28414,2.624838 1.11873,5.032728 1.67782,7.548818 0.55909,2.51609 -2.16778,0.63047 -3.25194,0.94543 -1.08417,0.31496 -2.706,2.48262 -4.05927,3.72365 -1.35328,1.24104 2.29289,0.76828 3.43906,1.15215 1.14616,0.38385 1.46696,-1.53915 2.20016,-2.309 0.73321,-0.76985 1.69008,2.99028 2.53485,4.48515 0.84476,1.49486 -0.54021,4.423586 -0.81059,6.635116 -0.27038,2.21152 -3.62562,5.41148 -5.43871,8.11695 -1.81309,2.70546 -2.33446,5.72545 -3.50197,8.5879 -1.1675,2.86245 2.01806,1.96189 3.0268,2.94255 1.00875,0.98066 3.66415,-2.01795 5.49595,-3.02719 1.8318,-1.00925 3.89331,-8.0934 5.83969,-12.14037 1.94637,-4.04698 -1.28978,-0.45639 -1.93495,-0.68487 -0.64516,-0.22846 -0.9612,-4.21884 -1.44208,-6.32853 -0.48088,-2.109696 4.39248,-2.370406 6.58844,-3.555886 2.19597,-1.18548 1.71464,3.311216 2.57169,4.966546 0.85705,1.65534 4.32576,-1.50757 6.48836,-2.26163 2.1626,-0.754056 -0.75969,-1.015976 -1.13981,-1.524246 -0.38012,-0.50827 2.17315,-0.2497 3.25945,-0.37483 1.08629,-0.12513 2.08256,2.005556 3.12356,3.008066 1.041,1.0025 -0.52916,3.42439 -0.79401,5.13631 -0.26486,1.71192 -2.96535,2.20228 -4.4483,3.30315 -1.48295,1.10086 1.21385,4.61541 1.8205,6.92284 0.60665,2.30743 3.34363,0.29668 5.01517,0.44475 1.67155,0.14807 2.03211,1.93052 3.04789,2.8955 1.01578,0.96498 1.33087,-1.75708 1.99602,-2.63589 0.66516,-0.87881 3.20424,3.72008 4.80608,5.57985 1.60184,1.85976 1.37352,1.06198 2.06001,1.59269 0.68649,0.53071 3.19426,-0.41297 4.79112,-0.61973 1.59686,-0.20676 1.52216,4.67499 2.28296,7.0122 0.7608,2.33722 1.19279,1.69989 1.78891,2.54957 0.59612,0.84967 -1.94945,1.65404 -2.92446,2.48079 -0.975,0.82673 -0.0762,5.74555 -0.11465,8.61806 -0.0384,2.87251 0.69389,2.15943 1.04055,3.23886 0.34667,1.07944 -3.48122,1.22102 -5.22212,1.83124 -1.74089,0.61023 -2.97486,-2.59469 -4.46256,-3.89231 -1.48771,-1.29763 -0.98189,2.35599 -1.47311,3.53372 -0.49121,1.17772 1.53083,1.93926 2.29596,2.90862 0.76514,0.96936 -3.56443,1.32797 -5.34692,1.99169 -1.78249,0.66371 -0.16324,1.15216 -0.24513,1.72797 -0.0819,0.57581 -5.14941,-0.62804 -7.72439,-0.94235 -2.57498,-0.3143 -1.64634,-1.86027 -2.46978,-2.79069 -0.82345,-0.93042 0.65442,-1.77796 0.98135,-2.66722 0.32694,-0.88926 -2.14711,-1.28313 -3.22095,-1.92497 -1.07383,-0.64184 -2.93483,0.86449 -4.40252,1.29646 -1.46769,0.43196 -1.61919,2.16561 -2.42907,3.24814 -0.80987,1.08253 1.35448,0.92589 2.03144,1.38856 0.67696,0.46267 1.43841,2.13102 2.15735,3.19624 0.71893,1.06522 -2.48503,-0.61132 -3.72782,-0.91725 -1.24279,-0.30594 -2.35987,1.41313 -3.54008,2.11943 -1.18022,0.7063 -2.5614,-0.94812 -3.84237,-1.42245 -1.28098,-0.47433 -3.9516,-1.02163 -5.92768,-1.53271 -1.97607,-0.51109 0.98659,2.30783 1.4796,3.46148 0.49302,1.15364 1.03113,1.53648 1.54641,2.30445 0.51529,0.76796 -1.99199,-0.455 -2.98827,-0.68278 -0.99627,-0.22777 -2.24129,-1.58555 -3.36222,-2.37861 -1.12092,-0.79306 -2.31313,0.83999 -5.163238,-1.55393 -2.8501,-2.39392 -13.00566,-12.78939 -14.21948,-12.82685 -7.63544,-0.1547 -0.0472,-23.66239 -12.25789,-25.81409 -12.55598,-2.21256 -0.59691,-10.82108 -0.89564,-16.2319 -0.29873,-5.410806 3.39107,-11.491286 5.08633,-17.237216 z"
       sodipodi:nodetypes="ssssssssssssssssssssssscssssssssssssssssssssssssssssssssssssssssssssssssssssssssssssssssscssss" />
    <path
       style="fill:#eceff4;fill-opacity:1;stroke:none;stroke-width:1.05833333;stroke-linecap:butt;stroke-linejoin:miter;stroke-opacity:1;stroke-miterlimit:4;stroke-dasharray:none"
       d="m 167.6933,144.17193 c -0.40752,-0.0567 -0.82715,0.0631 -1.17694,0.27971 -0.3498,0.21664 -0.63508,0.52487 -0.8755,0.85877 -0.48083,0.66781 -0.80016,1.45145 -1.35592,2.05832 -0.3984,0.43505 -0.91807,0.76766 -1.49328,0.89852 -0.57521,0.13085 -1.20501,0.0497 -1.70392,-0.26511 -0.41242,-0.2602 -0.72136,-0.66809 -0.90253,-1.12083 -0.18117,-0.45274 -0.23952,-0.94861 -0.21446,-1.43562 0.0501,-0.974 0.42169,-1.89763 0.73754,-2.82036 0.14068,-0.41097 0.27206,-0.83038 0.30172,-1.26375 0.0297,-0.43336 -0.0507,-0.88706 -0.30172,-1.24155 -0.27011,-0.3814 -0.71864,-0.61465 -1.18105,-0.68254 -0.4624,-0.0679 -0.93731,0.0176 -1.37594,0.17897 -0.87725,0.3227 -1.61866,0.93538 -2.47315,1.31426 -0.53311,0.23638 -1.12957,0.37996 -1.70112,0.26418 -0.28578,-0.0579 -0.56038,-0.18149 -0.7813,-0.37179 -0.22092,-0.1903 -0.386,-0.4488 -0.44775,-0.73377 -0.0845,-0.39008 0.0301,-0.80741 0.25826,-1.13487 0.2282,-0.32746 0.5613,-0.57121 0.92062,-0.74497 0.71865,-0.34752 1.53639,-0.42861 2.28412,-0.7081 0.98717,-0.36898 1.81491,-1.06926 2.55023,-1.82421 0.35703,-0.36656 0.70031,-0.75288 0.95415,-1.19718 0.25384,-0.4443 0.4151,-0.9533 0.38399,-1.46405 -0.0358,-0.58777 -0.31914,-1.13029 -0.62939,-1.6308 -0.31025,-0.5005 -0.65741,-0.98783 -0.84623,-1.5456 -0.30411,-0.89834 -0.16092,-1.90711 0.24294,-2.76525 0.34786,-0.73915 0.87645,-1.38037 1.45953,-1.95253 1.04081,-1.02132 2.26027,-1.83943 3.38357,-2.76926 0.78953,-0.65355 1.54393,-1.37774 2.04724,-2.27058 0.1234,-0.2189 0.23094,-0.44667 0.3607,-0.66187 0.12976,-0.21519 0.28408,-0.4198 0.48397,-0.57208 0.19272,-0.14681 0.42296,-0.24051 0.66053,-0.28802 0.23756,-0.0475 0.48262,-0.05 0.72366,-0.0256 0.48209,0.0488 0.94627,0.20272 1.41796,0.31359 0.59194,0.13913 1.22677,0.20808 1.79813,0 0.41251,-0.15023 0.76196,-0.4343 1.08063,-0.73626 0.31868,-0.30196 0.61699,-0.62823 0.96951,-0.88988 0.66363,-0.49257 1.50418,-0.73235 2.32982,-0.69567 0.39275,0.0174 0.79256,0.0942 1.17425,0 0.24309,-0.06 0.46697,-0.18824 0.65264,-0.35622 0.18567,-0.16797 0.33401,-0.37483 0.44809,-0.59771 0.22817,-0.44575 0.31892,-0.9477 0.38985,-1.44341 0.0709,-0.4957 0.1259,-0.99836 0.29098,-1.47112 0.16509,-0.47276 0.4554,-0.92195 0.89091,-1.1691 0.43653,-0.24773 0.98635,-0.2641 1.45487,-0.084 0.46851,0.18007 0.85528,0.54404 1.10524,0.9793 0.25848,0.45009 0.37649,0.97296 0.38288,1.49194 0.006,0.51899 -0.0955,1.03512 -0.25396,1.52935 -0.31699,0.98847 -0.85539,1.88963 -1.25633,2.84713 -0.33187,0.79253 -0.56869,1.62168 -0.8852,2.42047 -0.0818,0.20638 -0.16913,0.41153 -0.22397,0.62664 -0.0548,0.21511 -0.0761,0.44311 -0.0242,0.65895 0.0617,0.25665 0.22696,0.48399 0.44313,0.63548 0.21617,0.15149 0.48054,0.22876 0.74445,0.23422 0.26391,0.005 0.52704,-0.059 0.76621,-0.17071 0.23917,-0.11169 0.45503,-0.2697 0.64611,-0.45182 0.4593,-0.43778 0.77049,-1.00459 1.15824,-1.50684 0.19387,-0.25113 0.40937,-0.48847 0.6642,-0.67745 0.25482,-0.18899 0.55141,-0.32853 0.86604,-0.36926 0.42349,-0.0548 0.86309,0.0764 1.20362,0.33406 0.34052,0.25767 0.58282,0.63565 0.70077,1.04606 0.13559,0.47179 0.11036,0.98222 -0.0311,1.45229 -0.14145,0.47006 -0.39537,0.90139 -0.70529,1.28207 -0.61985,0.76136 -1.44955,1.31634 -2.23172,1.90971 -0.78362,0.59447 -1.54852,1.25987 -2.00657,2.1303 -0.31074,0.5905 -0.46798,1.27308 -0.37234,1.93346 0.0516,0.35612 0.18016,0.70887 0.41786,0.97902 0.11885,0.13507 0.26406,0.24789 0.42766,0.32276 0.1636,0.0749 0.34571,0.11113 0.52508,0.0971 0.25244,-0.0198 0.48784,-0.13664 0.69739,-0.27879 0.20955,-0.14215 0.39991,-0.31103 0.60916,-0.45362 0.20924,-0.1426 0.444,-0.26042 0.69631,-0.28184 0.12615,-0.0107 0.25522,0.003 0.37346,0.0487 0.11825,0.0453 0.22526,0.12235 0.29947,0.22493 0.0818,0.1131 0.12148,0.25467 0.11745,0.39421 -0.004,0.13953 -0.0507,0.2766 -0.12664,0.39372 -0.1519,0.23425 -0.41352,0.38144 -0.68542,0.44483 -0.27189,0.0634 -0.55559,0.0511 -0.83332,0.0225 -0.27773,-0.0285 -0.55474,-0.0729 -0.83393,-0.0726 -0.61394,7.6e-4 -1.21016,0.21872 -1.74856,0.51374 -0.5384,0.29503 -1.02995,0.66709 -1.54044,1.00814 -1.13721,0.75974 -2.40962,1.4007 -3.22017,2.50227 -0.40527,0.55078 -0.67868,1.21541 -0.68011,1.89923 -7.1e-4,0.34191 0.067,0.68513 0.20909,0.99611 0.14212,0.31097 0.35954,0.58889 0.63482,0.79168 0.35312,0.26014 0.78877,0.38952 1.22465,0.4382 0.43589,0.0487 0.87626,0.0212 1.31405,-0.005 0.43778,-0.0266 0.87841,-0.0523 1.3139,-1.1e-4 0.43548,0.0522 0.86997,0.18693 1.21888,0.45268 0.26637,0.20288 0.47581,0.47827 0.60677,0.78642 0.13096,0.30816 0.18385,0.64824 0.15984,0.9822 -0.048,0.66793 -0.40751,1.29686 -0.92618,1.72044 -0.51868,0.42358 -1.18547,0.64799 -1.85435,0.68018 -0.66889,0.0322 -1.33921,-0.12087 -1.95306,-0.3885 -0.46478,-0.20263 -0.89876,-0.46935 -1.35604,-0.68838 -0.45728,-0.21904 -0.94991,-0.39223 -1.45693,-0.38837 -0.44555,0.003 -0.88506,0.14581 -1.26471,0.37904 -0.37964,0.23322 -0.7009,0.55491 -0.95945,0.91778 -0.45445,0.63781 -0.71974,1.42143 -0.67786,2.20346 0.0419,0.78204 0.40657,1.55455 1.02611,2.03362 0.38598,0.29847 0.85537,0.47881 1.22668,0.79535 0.18566,0.15827 0.34607,0.35276 0.43207,0.58106 0.086,0.2283 0.0914,0.49295 -0.018,0.71102 -0.063,0.1257 -0.16204,0.23238 -0.28001,0.30893 -0.11797,0.0765 -0.25445,0.12325 -0.39406,0.14014 -0.27921,0.0338 -0.56451,-0.052 -0.80216,-0.20242 -0.23765,-0.15041 -0.43132,-0.36202 -0.59537,-0.59047 -0.16404,-0.22845 -0.30077,-0.47505 -0.44533,-0.7163 -0.84397,-1.40843 -1.95457,-2.63393 -2.98329,-3.91365 -0.23944,-0.29786 -0.47652,-0.60096 -0.76414,-0.85261 -0.28762,-0.25165 -0.63305,-0.45171 -1.01157,-0.50442 z"
       id="path13484"
       inkscape:path-effect="#path-effect13486"
       inkscape:original-d="m 167.6933,144.17193 c -0.59217,-0.45261 -2.27197,2.13147 -3.40836,3.1968 -1.13638,1.06535 -2.1312,0.42254 -3.1972,0.63341 -1.06599,0.21087 -0.2527,-3.58428 -0.37945,-5.37681 -0.12675,-1.79253 2.6e-4,-1.66993 0,-2.5053 -2.6e-4,-0.83536 -3.35316,0.54073 -5.03014,0.81069 -1.67698,0.26998 -1.95319,-0.56065 -2.93017,-0.84138 -0.97699,-0.28072 2.30893,-1.72502 3.463,-2.58794 1.15407,-0.86291 1.70042,-1.21588 2.55023,-1.82421 0.84982,-0.60834 0.89236,-1.77389 1.33814,-2.66123 0.44578,-0.88734 -0.98348,-2.11734 -1.47562,-3.1764 -0.49214,-1.05906 0.16222,-1.84323 0.24294,-2.76525 0.0807,-0.92201 0.97328,-1.30142 1.45953,-1.95253 0.48625,-0.65111 2.25598,-1.84591 3.38357,-2.76926 1.12759,-0.92335 1.36509,-1.51346 2.04724,-2.27058 0.68214,-0.75712 0.56337,-0.82237 0.84467,-1.23395 0.28129,-0.41158 1.86836,2.6e-4 2.80215,0 0.93377,-2.6e-4 1.19902,2.6e-4 1.79813,0 0.59911,-2.6e-4 1.36702,-1.08383 2.05014,-1.62614 0.68312,-0.54231 1.55348,-0.46352 2.32982,-0.69567 0.77634,-0.23216 0.7831,2.6e-4 1.17425,0 0.39114,-2.6e-4 1.78191,-3.35811 2.67247,-5.03756 0.89055,-1.67945 1.70701,0.5971 2.56011,0.89526 0.85311,0.29815 -0.75134,3.91255 -1.12741,5.86842 -0.37606,1.95588 -0.58987,1.61391 -0.8852,2.42047 -0.29533,0.80656 -0.16521,0.85732 -0.24821,1.28559 -0.083,0.42826 1.73353,0.16504 2.5999,0.24717 0.86639,0.0821 1.79258,-1.7021 2.68848,-2.55355 0.89589,-0.85145 1.26986,0.92035 1.90439,1.38012 0.63454,0.45978 -1.97847,3.09631 -2.96811,4.64407 -0.98963,1.54776 -1.33746,1.42047 -2.00657,2.1303 -0.66913,0.70984 -0.24797,1.28924 -0.37234,1.93346 -0.12437,0.64422 0.91399,0.93283 1.3706,1.39885 0.4566,0.46602 1.78413,-0.49349 2.67579,-0.74063 0.89167,-0.24714 -1.5743,0.78872 -2.36186,1.18268 -0.78754,0.39397 -2.1924,1.01485 -3.289,1.52188 -1.09659,0.50703 -2.03732,4.12646 -3.05637,6.18929 -1.01906,2.06283 3.38125,0.59054 5.07148,0.88541 1.69023,0.29488 -2.64439,2.52076 -3.96698,3.78074 -1.3226,1.25999 -1.87505,-0.71757 -2.81297,-1.07675 -0.93792,-0.35917 -1.48251,0.86481 -2.22416,1.29682 -0.74165,0.432 0.23243,2.82499 0.34825,4.23708 0.11582,1.4121 1.09411,1.39188 1.64077,2.08743 0.54666,0.69553 -1.67769,-0.70648 -2.51693,-1.06012 -0.83924,-0.35363 -1.98859,-2.60883 -2.98329,-3.91365 -0.9947,-1.30481 -1.18354,-0.90442 -1.77571,-1.35703 z" />
    <path
       style="fill:#eceff4;fill-opacity:1;stroke:none;stroke-width:1.05833333;stroke-linecap:butt;stroke-linejoin:miter;stroke-opacity:1;stroke-miterlimit:4;stroke-dasharray:none"
       d="m 195.64756,89.633734 c -0.13587,0.167552 -0.33569,0.273938 -0.54337,0.332283 -0.20767,0.05834 -0.4249,0.07244 -0.64035,0.08312 -0.21545,0.01069 -0.4324,0.01845 -0.64308,0.06478 -0.21068,0.04633 -0.41736,0.134262 -0.57153,0.285146 -0.13503,0.132158 -0.22377,0.307652 -0.26612,0.49179 -0.0423,0.184138 -0.0399,0.376751 -0.009,0.563164 0.0617,0.372825 0.23265,0.716864 0.38089,1.064461 0.14825,0.347598 0.27743,0.717914 0.24781,1.09464 -0.0148,0.188363 -0.0707,0.375349 -0.1758,0.532396 -0.10505,0.157047 -0.261,0.282543 -0.44206,0.336559 -0.19119,0.05704 -0.40226,0.03181 -0.58316,-0.05237 -0.18089,-0.08418 -0.33249,-0.224403 -0.44664,-0.38804 -0.22831,-0.327275 -0.30635,-0.733582 -0.36791,-1.127846 -0.10841,-0.694343 -0.18378,-1.398196 -0.39391,-2.068799 -0.21014,-0.670604 -0.57126,-1.318084 -1.14111,-1.729351 -0.53779,-0.388131 -1.21031,-0.533773 -1.79985,-0.83759 -0.74276,-0.382775 -1.35025,-1.030079 -1.66292,-1.80496 -0.3117,-0.772483 -0.32708,-1.63736 -0.20105,-2.46077 0.15216,-0.994124 0.51077,-1.967016 1.11661,-2.769758 0.40854,-0.541321 0.93033,-1.002901 1.53836,-1.303287 0.60804,-0.300385 1.30383,-0.434684 1.97523,-0.339023 0.67213,0.09576 1.30111,0.418057 1.81495,0.861777 0.51385,0.44372 0.91722,1.005107 1.23275,1.606243 0.33532,0.638841 0.57945,1.363106 0.46407,2.075318 -0.0638,0.393775 -0.23366,0.760975 -0.36331,1.138228 -0.12964,0.377252 -0.21989,0.787236 -0.11887,1.173142 0.0971,0.371116 0.35973,0.675815 0.64031,0.937418 0.28059,0.261604 0.58952,0.497478 0.82351,0.801472 0.15874,0.206229 0.28153,0.445797 0.31844,0.703414 0.0369,0.257617 -0.019,0.534305 -0.18287,0.736446 z"
       id="path16001"
       inkscape:path-effect="#path-effect16003"
       inkscape:original-d="m 195.64756,89.633734 c 0.0449,0.47969 -1.59863,0.51048 -2.39833,0.76533 -0.79971,0.25484 -0.17593,2.72227 -0.2643,4.08301 -0.0884,1.36074 -0.93154,-1.04525 -1.39771,-1.56826 -0.46616,-0.52302 -1.02308,-2.53184 -1.53502,-3.79815 -0.51195,-1.26632 -1.19964,-0.55813 -1.79985,-0.83759 -0.60022,-0.27946 -1.10835,-1.20304 -1.66292,-1.80496 -0.55457,-0.60192 -0.13377,-1.64025 -0.20105,-2.46077 -0.0673,-0.820518 0.74467,-1.846238 1.11661,-2.769758 0.37194,-0.92352 2.34266,-1.09461 3.51359,-1.64231 1.17093,-0.5477 2.03206,1.64561 3.0477,2.46802 1.01564,0.8224 0.30964,1.383808 0.46407,2.075318 0.15442,0.69151 -0.32119,1.54118 -0.48218,2.31137 -0.16098,0.7702 0.97614,1.15952 1.46382,1.73889 0.48768,0.57936 0.0907,0.96017 0.13557,1.43986 z" />
    <circle
       style="fill:#d8dee9;fill-opacity:0.61548293;stroke:none;stroke-width:0.0759673"
       id="path1435-91-0-19-21"
       cx="247.60397"
       cy="160.36414"
       r="0.79374999" />
    <circle
       style="fill:#d8dee9;fill-opacity:0.8392157;stroke:none;stroke-width:0.0759673"
       id="path1435-91-0-19"
       cx="132.59213"
       cy="32.716507"
       r="0.79374999" />
    <circle
       style="fill:#d8dee9;fill-opacity:0.61548293;stroke:none;stroke-width:0.0759673"
       id="path1435-91-0-19-3"
       cx="222.31323"
       cy="198.92896"
       r="0.79374999" />
    <circle
       style="fill:#d8dee9;fill-opacity:0.8392157;stroke:none;stroke-width:0.0759673"
       id="path1435-91-0-19-8"
       cx="228.16124"
       cy="56.12125"
       r="0.79374999" />
    <circle
       style="fill:#d8dee9;fill-opacity:0.8392157;stroke:none;stroke-width:0.0759673"
       id="path1435-91-0-19-0"
       cx="210.76199"
       cy="34.93586"
       r="0.79374999" />
    <circle
       style="fill:#d8dee9;fill-opacity:0.61548293;stroke:none;stroke-width:0.0759673"
       id="path1435-91-0-19-9"
       cx="131.85254"
       cy="13.776961"
       r="0.79374999" />
    <circle
       style="fill:#d8dee9;fill-opacity:0.61548293;stroke:none;stroke-width:0.0759673"
       id="path1435-91-0-19-7"
       cx="44.647026"
       cy="17.26055"
       r="0.79374999" />
    <circle
       style="fill:#d8dee9;fill-opacity:0.8392157;stroke:none;stroke-width:0.0759673"
       id="path1435-91-0-19-99"
       cx="60.139439"
       cy="137.87001"
       r="0.79374999" />
    <circle
       style="fill:#d8dee9;fill-opacity:0.61548293;stroke:none;stroke-width:0.0759673"
       id="path1435-91-0-19-32"
       cx="21.998669"
       cy="173.61069"
       r="0.79374999" />
    <circle
       style="fill:#d8dee9;fill-opacity:0.8392157;stroke:none;stroke-width:0.0759673"
       id="path1435-91-0-19-4"
       cx="38.944645"
       cy="144.36255"
       r="0.79374999" />
    <circle
       style="fill:#d8dee9;fill-opacity:0.61548293;stroke:none;stroke-width:0.0759673"
       id="path1435-91-0-19-37"
       cx="11.649806"
       cy="116.89889"
       r="0.79374999" />
    <circle
       style="fill:#d8dee9;fill-opacity:0.8392157;stroke:none;stroke-width:0.0759673"
       id="path1435-91-0-19-1"
       cx="100.01935"
       cy="170.96088"
       r="0.79374999" />
    <circle
       style="fill:#d8dee9;fill-opacity:0.8392157;stroke:none;stroke-width:0.0759673"
       id="path1435-91-0-19-2"
       cx="149.01572"
       cy="180.39075"
       r="0.79374999" />
    <circle
       style="fill:#d8dee9;fill-opacity:0.61548293;stroke:none;stroke-width:0.0759673"
       id="path1435-91-0-19-20"
       cx="259.60867"
       cy="122.2803"
       r="0.79374999" />
    <circle
       style="fill:#d8dee9;fill-opacity:0.8392157;stroke:none;stroke-width:0.10129"
       id="path1435-91-0-207-9-9"
       cx="195.67375"
       cy="160.1523"
       r="1.0583333" />
    <circle
       style="fill:#d8dee9;fill-opacity:0.8392157;stroke:none;stroke-width:0.10129"
       id="path1435-91-0-207-9-9-7"
       cx="222.35272"
       cy="92.475563"
       r="1.0583333" />
    <circle
       style="fill:#d8dee9;fill-opacity:0.8392157;stroke:none;stroke-width:0.10129"
       id="path1435-91-0-207-9-9-5"
       cx="72.940033"
       cy="162.78455"
       r="1.0583333" />
    <circle
       style="fill:#d8dee9;fill-opacity:0.8392157;stroke:none;stroke-width:0.10129"
       id="path1435-91-0-207-9-9-1"
       cx="56.962845"
       cy="115.66407"
       r="1.0583333" />
    <circle
       style="fill:#d8dee9;fill-opacity:0.8392157;stroke:none;stroke-width:0.10129"
       id="path1435-91-0-207-9-9-74"
       cx="46.466621"
       cy="74.117302"
       r="1.0583333" />
    <circle
       style="fill:#d8dee9;fill-opacity:0.8392157;stroke:none;stroke-width:0.10129"
       id="path1435-91-0-207-9-9-17"
       cx="86.031998"
       cy="37.435024"
       r="1.0583333" />
    <circle
       style="fill:#d8dee9;fill-opacity:0.8392157;stroke:none;stroke-width:0.10129"
       id="path1435-91-0-207-9-9-11"
       cx="173.77049"
       cy="38.263641"
       r="1.0583333" />
    <circle
       style="fill:#d8dee9;fill-opacity:0.8392157;stroke:none;stroke-width:0.0506448"
       id="path1435-50-1"
       cx="136.90964"
       cy="37.800442"
       r="0.52916664" />
    <circle
       style="fill:#d8dee9;fill-opacity:0.61548293;stroke:none;stroke-width:0.0506448"
       id="path1435-50-1-5"
       cx="16.63003"
       cy="30.073463"
       r="0.52916664" />
    <circle
       style="fill:#d8dee9;fill-opacity:0.61548293;stroke:none;stroke-width:0.0506448"
       id="path1435-50-1-8"
       cx="6.2683978"
       cy="92.475563"
       r="0.52916664" />
    <circle
       style="fill:#d8dee9;fill-opacity:0.61548293;stroke:none;stroke-width:0.0506448"
       id="path1435-50-1-53"
       cx="13.038553"
       cy="158.37541"
       r="0.52916664" />
    <circle
       style="fill:#d8dee9;fill-opacity:0.8392157;stroke:none;stroke-width:0.0506448"
       id="path1435-50-1-3"
       cx="233.97118"
       cy="170.62326"
       r="0.52916664" />
    <circle
       style="fill:#d8dee9;fill-opacity:0.61548293;stroke:none;stroke-width:0.0506448"
       id="path1435-50-1-83"
       cx="264.14337"
       cy="16.123831"
       r="0.52916664" />
    <circle
       style="fill:#d8dee9;fill-opacity:0.61548293;stroke:none;stroke-width:0.0506448"
       id="path1435-50-1-7"
       cx="252.57141"
       cy="34.93586"
       r="0.52916664" />
    <circle
       style="fill:#d8dee9;fill-opacity:0.8392157;stroke:none;stroke-width:0.0506448"
       id="path1435-50-1-9"
       cx="218.2132"
       cy="144.21989"
       r="0.52916664" />
    <circle
       style="fill:#d8dee9;fill-opacity:0.8392157;stroke:none;stroke-width:0.0506448"
       id="path1435-50-1-37"
       cx="103.54774"
       cy="168.64322"
       r="0.52916664" />
    <circle
       style="fill:#d8dee9;fill-opacity:0.8392157;stroke:none;stroke-width:0.0506448"
       id="path1435-50-1-87"
       cx="39.798717"
       cy="93.303467"
       r="0.52916664" />
    <circle
       style="fill:#d8dee9;fill-opacity:0.8392157;stroke:none;stroke-width:0.0506448"
       id="path1435-50-1-4"
       cx="37.195839"
       cy="44.99551"
       r="0.52916664" />
    <circle
       style="fill:#d8dee9;fill-opacity:0.8392157;stroke:none;stroke-width:0.0506448"
       id="path1435-50-1-1"
       cx="81.391418"
       cy="179.23999"
       r="0.52916664" />
    <circle
       style="fill:#d8dee9;fill-opacity:0.8392157;stroke:none;stroke-width:0.0506448"
       id="path1435-50-1-90"
       cx="228.34157"
       cy="69.31765"
       r="0.52916664" />
    <circle
       style="fill:#d8dee9;fill-opacity:0.61548293;stroke:none;stroke-width:0.0506448"
       id="path1435-50-1-98"
       cx="248.01791"
       cy="30.382359"
       r="0.52916664" />
    <circle
       style="fill:#d8dee9;fill-opacity:0.61548293;stroke:none;stroke-width:0.0506448"
       id="path1435-50-1-85"
       cx="127.29902"
       cy="12.121142"
       r="0.52916664" />
    <circle
       style="fill:#d8dee9;fill-opacity:0.8392157;stroke:none;stroke-width:0.0506448"
       id="path1435-50-1-84"
       cx="54.287136"
       cy="55.219639"
       r="0.52916664" />
    <circle
       style="fill:#d8dee9;fill-opacity:0.61548293;stroke:none;stroke-width:0.0506448"
       id="path1435-50-1-371"
       cx="46.478077"
       cy="190.56358"
       r="0.52916664" />
  </g>
</svg>
